<?xml version="1.0" encoding="UTF-8" standalone="no"?>
<!-- Created with Inkscape (http://www.inkscape.org/) -->

<svg
   version="1.1"
   id="svg2"
   width="3742.6667"
   height="2138.6667"
   viewBox="0 0 3742.6667 2138.6667"
   sodipodi:docname="3-bombillas.svg"
   inkscape:version="1.2.2 (b0a8486541, 2022-12-01)"
   xmlns:inkscape="http://www.inkscape.org/namespaces/inkscape"
   xmlns:sodipodi="http://sodipodi.sourceforge.net/DTD/sodipodi-0.dtd"
   xmlns="http://www.w3.org/2000/svg"
   xmlns:svg="http://www.w3.org/2000/svg">
  <defs
     id="defs6" />
  <sodipodi:namedview
     id="namedview4"
     pagecolor="#ffffff"
     bordercolor="#000000"
     borderopacity="0.25"
     inkscape:showpageshadow="2"
     inkscape:pageopacity="0.0"
     inkscape:pagecheckerboard="0"
     inkscape:deskcolor="#d1d1d1"
     showgrid="false"
     inkscape:zoom="0.41280725"
     inkscape:cx="1873.7558"
     inkscape:cy="1070.7176"
     inkscape:window-width="2560"
     inkscape:window-height="1368"
     inkscape:window-x="0"
     inkscape:window-y="35"
     inkscape:window-maximized="1"
     inkscape:current-layer="g10">
    <inkscape:page
       x="0"
       y="0"
       id="page8"
       width="3742.6667"
       height="2138.6667" />
  </sodipodi:namedview>
  <g
     id="g10"
     inkscape:groupmode="layer"
     inkscape:label="Page 1"
     transform="matrix(1.3333333,0,0,-1.3333333,0,2138.6667)">
    <g
       id="g12"
       transform="scale(0.1)">
      <path
         d="M 28062.4,4.30078 H 0 V 16040 H 28062.4 V 4.30078"
         style="fill:#ffffff;fill-opacity:1;fill-rule:nonzero;stroke:none"
         id="path14" />
      <path
         d="m 14124.5,12118 c -53.6,0 -97.1,43.4 -97.1,97 v 479.3 c 0,53.6 43.5,97.1 97.1,97.1 53.6,0 97.1,-43.5 97.1,-97.1 V 12215 c 0,-53.6 -43.5,-97 -97.1,-97"
         style="fill:#162942;fill-opacity:1;fill-rule:nonzero;stroke:none"
         id="path16" />
      <path
         d="m 16361.4,11191.4 c -24.8,0 -49.6,9.5 -68.6,28.4 -37.9,37.9 -37.9,99.4 0,137.3 l 339,338.9 c 37.9,37.9 99.3,37.9 137.2,0 37.9,-37.9 37.9,-99.4 0,-137.3 l -338.9,-338.9 c -19,-18.9 -43.8,-28.4 -68.7,-28.4"
         style="fill:#162942;fill-opacity:1;fill-rule:nonzero;stroke:none"
         id="path18" />
      <path
         d="m 11548.6,6378.51 c -24.8,0 -49.7,9.47 -68.6,28.43 -37.9,37.88 -37.9,99.37 0,137.25 l 338.9,338.93 c 37.9,37.92 99.3,37.92 137.3,0 37.9,-37.89 37.9,-99.36 0,-137.25 l -339,-338.93 c -18.9,-18.96 -43.8,-28.43 -68.6,-28.43"
         style="fill:#162942;fill-opacity:1;fill-rule:nonzero;stroke:none"
         id="path20" />
      <path
         d="M 17767.4,8954.4 H 17288 c -53.6,0 -97.1,43.45 -97.1,97.06 0,53.63 43.5,97.07 97.1,97.07 h 479.4 c 53.6,0 97,-43.44 97,-97.07 0,-53.61 -43.4,-97.06 -97,-97.06"
         style="fill:#162942;fill-opacity:1;fill-rule:nonzero;stroke:none"
         id="path22" />
      <path
         d="m 10960.9,8954.4 h -479.3 c -53.6,0 -97,43.45 -97,97.06 0,53.63 43.4,97.07 97,97.07 h 479.3 c 53.7,0 97.1,-43.44 97.1,-97.07 0,-53.61 -43.4,-97.06 -97.1,-97.06"
         style="fill:#162942;fill-opacity:1;fill-rule:nonzero;stroke:none"
         id="path24" />
      <path
         d="m 16700.4,6378.51 c -24.8,0 -49.7,9.47 -68.6,28.43 l -339,338.93 c -37.9,37.89 -37.9,99.34 0,137.25 37.9,37.92 99.3,37.92 137.3,0 l 338.9,-338.93 c 37.9,-37.88 37.9,-99.34 0,-137.25 -18.9,-18.96 -43.8,-28.43 -68.6,-28.43"
         style="fill:#162942;fill-opacity:1;fill-rule:nonzero;stroke:none"
         id="path26" />
      <path
         d="m 11887.5,11191.4 c -24.8,0 -49.6,9.5 -68.6,28.4 l -338.9,338.9 c -37.9,37.9 -37.9,99.4 0,137.3 37.9,37.9 99.3,37.9 137.2,0 l 339,-338.9 c 37.9,-37.9 37.9,-99.4 0,-137.3 -19,-18.9 -43.8,-28.4 -68.7,-28.4"
         style="fill:#162942;fill-opacity:1;fill-rule:nonzero;stroke:none"
         id="path28" />
      <path
         d="m 15346.2,11872.5 c -12.5,0 -25.2,2.4 -37.4,7.5 -49.5,20.7 -72.8,77.6 -52.1,127.1 l 185.1,442.1 c 20.7,49.5 77.7,72.7 127,52.1 49.5,-20.7 72.8,-77.6 52.1,-127.1 l -185.1,-442.1 c -15.6,-37.2 -51.6,-59.6 -89.6,-59.6"
         style="fill:#162942;fill-opacity:1;fill-rule:nonzero;stroke:none"
         id="path30" />
      <path
         d="m 17051.8,10153.9 c -38.2,0 -74.4,22.7 -89.8,60.3 -20.3,49.6 3.4,106.3 53,126.6 l 443.5,181.8 c 49.6,20.2 106.3,-3.5 126.6,-53.1 20.4,-49.6 -3.4,-106.3 -53,-126.6 l -443.5,-181.7 c -12,-5 -24.5,-7.3 -36.8,-7.3"
         style="fill:#162942;fill-opacity:1;fill-rule:nonzero;stroke:none"
         id="path32" />
      <path
         d="m 10753.7,7573.12 c -38.3,0 -74.5,22.72 -89.9,60.29 -20.3,49.6 3.4,106.29 53,126.63 l 443.6,181.75 c 49.5,20.28 106.3,-3.45 126.6,-53.02 20.3,-49.61 -3.4,-106.3 -53,-126.64 l -443.6,-181.75 c -12,-4.92 -24.5,-7.26 -36.7,-7.26"
         style="fill:#162942;fill-opacity:1;fill-rule:nonzero;stroke:none"
         id="path34" />
      <path
         d="m 17484.7,7547.53 c -12.5,0 -25.2,2.43 -37.4,7.55 l -442.2,185.09 c -49.4,20.7 -72.8,77.56 -52.1,127.02 20.8,49.51 77.7,72.73 127,52.07 l 442.2,-185.09 c 49.5,-20.7 72.8,-77.58 52.1,-127.02 -15.6,-37.22 -51.7,-59.62 -89.6,-59.62"
         style="fill:#162942;fill-opacity:1;fill-rule:nonzero;stroke:none"
         id="path36" />
      <path
         d="m 11206.3,10176.1 c -12.5,0 -25.2,2.5 -37.4,7.6 l -442.1,185.1 c -49.5,20.7 -72.8,77.6 -52.1,127 20.7,49.5 77.7,72.7 127,52.1 l 442.1,-185.1 c 49.5,-20.8 72.8,-77.6 52.1,-127 -15.6,-37.3 -51.6,-59.7 -89.6,-59.7"
         style="fill:#162942;fill-opacity:1;fill-rule:nonzero;stroke:none"
         id="path38" />
      <path
         d="m 12925,11881.7 c -38.2,0 -74.5,22.7 -89.9,60.3 l -181.7,443.5 c -20.3,49.6 3.4,106.3 53,126.7 49.6,20.2 106.3,-3.5 126.7,-53.1 l 181.7,-443.5 c 20.3,-49.6 -3.4,-106.3 -53,-126.7 -12.1,-4.9 -24.5,-7.2 -36.8,-7.2"
         style="fill:#162942;fill-opacity:1;fill-rule:nonzero;stroke:none"
         id="path40" />
      <path
         d="m 14974.8,4433.2 h -1639.6 c -92.5,0 -167.5,75 -167.5,167.5 v 0 c 0,92.5 75,167.5 167.5,167.5 h 1639.6 c 92.5,0 167.5,-75 167.5,-167.5 v 0 c 0,-92.5 -75,-167.5 -167.5,-167.5"
         style="fill:#162942;fill-opacity:1;fill-rule:nonzero;stroke:none"
         id="path42" />
      <path
         d="m 14974.8,3907.1 h -1639.6 c -92.5,0 -167.5,75 -167.5,167.5 v 0 c 0,92.5 75,167.5 167.5,167.5 h 1639.6 c 92.5,0 167.5,-75 167.5,-167.5 v 0 c 0,-92.5 -75,-167.5 -167.5,-167.5"
         style="fill:#162942;fill-opacity:1;fill-rule:nonzero;stroke:none"
         id="path44" />
      <path
         d="m 13757.2,3708.9 c -40.6,0 -71.4,-36.9 -63.9,-76.8 40.4,-215.8 229.5,-379.2 457,-379.2 227.5,0 416.6,163.4 457,379.2 7.4,39.9 -23.4,76.8 -63.9,76.8 h -786.2"
         style="fill:#162942;fill-opacity:1;fill-rule:nonzero;stroke:none"
         id="path46" />
      <path
         d="m 14142.7,11269.4 c -117.3,0 -234.4,-9.2 -348.7,-27.7 -1050.7,-170 -1813.4,-1067.4 -1813.4,-2133.77 0,-812.74 320.5,-1310.35 659.8,-1837.16 328.4,-509.92 668,-1037.23 729.9,-1861.37 4.5,-59.7 54.8,-106.5 114.6,-106.5 h 1316.4 c 60.7,0 110,45.8 114.5,106.5 62,824.14 401.6,1351.45 730,1861.37 339.3,526.81 659.9,1024.42 659.9,1837.16 0,1040.27 -741,1933.97 -1761.8,2124.77 -131,24.5 -266.1,36.7 -401.2,36.7 z m 658.6,-6290.1 h -1316.4 c -228.1,0 -420.1,178.3 -437.2,405.9 -55.8,742.21 -358.6,1212.49 -679.3,1710.38 -349.7,542.97 -711.3,1104.43 -711.3,2012.35 0,1225.97 876.9,2257.67 2085.2,2453.17 282.5,45.7 580.2,42.1 861,-10.3 1173.9,-219.5 2025.9,-1246.9 2025.9,-2442.87 0,-907.92 -361.6,-1469.38 -711.3,-2012.35 -320.8,-497.89 -623.6,-968.17 -679.4,-1710.38 -17.1,-227.6 -209.2,-405.9 -437.2,-405.9"
         style="fill:#162942;fill-opacity:1;fill-rule:nonzero;stroke:none"
         id="path48" />
      <path
         d="m 12938.5,7550.44 c -49.9,-0.04 -99.2,23.06 -130.9,66.53 -898.1,1233.67 -236.1,2391.53 -207.4,2440.23 45.2,77 144.4,102.7 221.4,57.4 76.9,-45.2 102.7,-144.13 57.7,-221.09 -24.8,-42.72 -580,-1028.68 189.9,-2086.08 52.6,-72.22 36.7,-173.43 -35.6,-226 -28.7,-20.91 -62,-30.99 -95.1,-30.99"
         style="fill:#162942;fill-opacity:1;fill-rule:nonzero;stroke:none"
         id="path50" />
      <path
         d="m 5434.48,12117.9 c -53.62,0 -97.06,43.5 -97.06,97.1 v 479.3 c 0,53.6 43.44,97.1 97.06,97.1 53.62,0 97.06,-43.5 97.06,-97.1 V 12215 c 0,-53.6 -43.44,-97.1 -97.06,-97.1"
         style="fill:#162942;fill-opacity:1;fill-rule:nonzero;stroke:none"
         id="path52" />
      <path
         d="m 7671.45,11191.4 c -24.83,0 -49.67,9.4 -68.63,28.4 -37.91,37.9 -37.91,99.4 0,137.3 l 338.93,338.9 c 37.92,37.9 99.34,37.9 137.25,0 37.92,-37.9 37.92,-99.4 0,-137.3 l -338.92,-338.9 c -18.97,-19 -43.8,-28.4 -68.63,-28.4"
         style="fill:#162942;fill-opacity:1;fill-rule:nonzero;stroke:none"
         id="path54" />
      <path
         d="m 2858.58,6378.53 c -24.83,0 -49.67,9.48 -68.62,28.43 -37.92,37.88 -37.92,99.37 0,137.25 l 338.93,338.93 c 37.91,37.92 99.33,37.92 137.25,0 37.91,-37.88 37.91,-99.37 0,-137.25 l -338.93,-338.93 c -18.96,-18.95 -43.79,-28.43 -68.63,-28.43"
         style="fill:#162942;fill-opacity:1;fill-rule:nonzero;stroke:none"
         id="path56" />
      <path
         d="m 9077.35,8954.39 h -479.31 c -53.63,0 -97.06,43.45 -97.06,97.07 0,53.62 43.43,97.06 97.06,97.06 h 479.31 c 53.62,0 97.06,-43.44 97.06,-97.06 0,-53.62 -43.44,-97.07 -97.06,-97.07"
         style="fill:#162942;fill-opacity:1;fill-rule:nonzero;stroke:none"
         id="path58" />
      <path
         d="m 2270.96,8954.39 h -479.35 c -53.62,0 -97.06,43.45 -97.06,97.07 0,53.62 43.44,97.06 97.06,97.06 h 479.35 c 53.62,0 97.06,-43.44 97.06,-97.06 0,-53.62 -43.44,-97.07 -97.06,-97.07"
         style="fill:#162942;fill-opacity:1;fill-rule:nonzero;stroke:none"
         id="path60" />
      <path
         d="m 8010.38,6378.53 c -24.83,0 -49.67,9.48 -68.63,28.43 l -338.93,338.93 c -37.91,37.88 -37.91,99.37 0,137.25 37.91,37.92 99.34,37.92 137.26,0 L 8079,6544.21 c 37.92,-37.88 37.92,-99.37 0,-137.25 -18.95,-18.95 -43.79,-28.43 -68.62,-28.43"
         style="fill:#162942;fill-opacity:1;fill-rule:nonzero;stroke:none"
         id="path62" />
      <path
         d="m 3197.51,11191.4 c -24.83,0 -49.67,9.4 -68.62,28.4 l -338.93,338.9 c -37.92,37.9 -37.92,99.4 0,137.3 37.91,37.9 99.34,37.9 137.25,0 l 338.93,-338.9 c 37.91,-37.9 37.91,-99.4 0,-137.3 -18.96,-19 -43.8,-28.4 -68.63,-28.4"
         style="fill:#162942;fill-opacity:1;fill-rule:nonzero;stroke:none"
         id="path64" />
      <path
         d="m 6656.21,11872.5 c -12.52,0 -25.22,2.4 -37.45,7.5 -49.44,20.8 -72.76,77.6 -52.07,127 l 185.13,442.2 c 20.69,49.5 77.72,72.6 127.01,52 49.45,-20.7 72.77,-77.6 52.07,-127 l -185.12,-442.1 c -15.57,-37.2 -51.63,-59.6 -89.57,-59.6"
         style="fill:#162942;fill-opacity:1;fill-rule:nonzero;stroke:none"
         id="path66" />
      <path
         d="m 8361.83,10153.9 c -38.24,0 -74.48,22.7 -89.87,60.3 -20.31,49.6 3.42,106.2 53.02,126.6 l 443.55,181.7 c 49.63,20.4 106.32,-3.4 126.64,-53 20.31,-49.6 -3.41,-106.3 -53.02,-126.6 l -443.55,-181.8 c -12.04,-4.9 -24.52,-7.2 -36.77,-7.2"
         style="fill:#162942;fill-opacity:1;fill-rule:nonzero;stroke:none"
         id="path68" />
      <path
         d="m 2063.66,7573.14 c -38.24,0 -74.48,22.72 -89.86,60.29 -20.32,49.6 3.41,106.29 53.02,126.63 l 443.54,181.74 c 49.64,20.32 106.32,-3.41 126.64,-53.02 20.31,-49.6 -3.42,-106.28 -53.02,-126.63 l -443.55,-181.74 c -12.03,-4.93 -24.51,-7.27 -36.77,-7.27"
         style="fill:#162942;fill-opacity:1;fill-rule:nonzero;stroke:none"
         id="path70" />
      <path
         d="m 8794.69,7547.52 c -12.51,0 -25.22,2.43 -37.44,7.55 l -442.12,185.13 c -49.46,20.72 -72.77,77.55 -52.07,127.01 20.72,49.47 77.72,72.7 127.01,52.07 l 442.13,-185.12 c 49.44,-20.73 72.76,-77.61 52.07,-127.02 -15.59,-37.22 -51.63,-59.62 -89.58,-59.62"
         style="fill:#162942;fill-opacity:1;fill-rule:nonzero;stroke:none"
         id="path72" />
      <path
         d="m 2516.37,10176.1 c -12.52,0 -25.22,2.4 -37.45,7.6 l -442.15,185.1 c -49.45,20.7 -72.77,77.6 -52.07,127 20.7,49.5 77.76,72.7 127.01,52.1 l 442.16,-185.1 c 49.45,-20.8 72.76,-77.6 52.07,-127.1 -15.58,-37.2 -51.63,-59.6 -89.57,-59.6"
         style="fill:#162942;fill-opacity:1;fill-rule:nonzero;stroke:none"
         id="path74" />
      <path
         d="m 4235,11881.7 c -38.23,0 -74.43,22.7 -89.86,60.3 l -181.74,443.5 c -20.31,49.6 3.42,106.3 53.02,126.6 49.63,20.3 106.31,-3.4 126.64,-53 l 181.73,-443.5 c 20.32,-49.6 -3.4,-106.3 -53.01,-126.6 -12.04,-5 -24.52,-7.3 -36.78,-7.3"
         style="fill:#162942;fill-opacity:1;fill-rule:nonzero;stroke:none"
         id="path76" />
      <path
         d="M 6284.81,4433.2 H 4645.24 c -92.52,0 -167.52,75 -167.52,167.5 v 0 c 0,92.5 75,167.5 167.52,167.5 h 1639.57 c 92.51,0 167.51,-75 167.51,-167.5 v 0 c 0,-92.5 -75,-167.5 -167.51,-167.5"
         style="fill:#162942;fill-opacity:1;fill-rule:nonzero;stroke:none"
         id="path78" />
      <path
         d="M 6284.81,3907.1 H 4645.24 c -92.52,0 -167.52,75 -167.52,167.5 v 0 c 0,92.5 75,167.5 167.52,167.5 h 1639.57 c 92.51,0 167.51,-75 167.51,-167.5 v 0 c 0,-92.5 -75,-167.5 -167.51,-167.5"
         style="fill:#162942;fill-opacity:1;fill-rule:nonzero;stroke:none"
         id="path80" />
      <path
         d="m 5067.2,3708.9 c -40.57,0 -71.36,-36.9 -63.91,-76.8 40.37,-215.8 229.46,-379.2 456.99,-379.2 227.53,0 416.62,163.4 456.99,379.2 7.46,39.9 -23.34,76.8 -63.91,76.8 H 5067.2"
         style="fill:#162942;fill-opacity:1;fill-rule:nonzero;stroke:none"
         id="path82" />
      <path
         d="M 6111.3,4979.3 H 4794.85 c -228.06,0 -420.1,178.3 -437.19,405.9 -55.78,742.2 -358.62,1212.48 -679.29,1710.37 -349.71,542.97 -711.29,1104.44 -711.29,2012.35 0,1225.98 876.95,2257.68 2085.21,2453.18 282.48,45.7 580.14,42.1 861.03,-10.3 1173.89,-219.5 2025.88,-1246.9 2025.88,-2442.88 0,-907.91 -361.62,-1469.38 -711.36,-2012.35 -320.7,-497.89 -623.58,-968.17 -679.34,-1710.37 -17.13,-227.6 -209.17,-405.9 -437.2,-405.9"
         style="fill:#162942;fill-opacity:1;fill-rule:nonzero;stroke:none"
         id="path84" />
      <path
         d="m 4248.53,7550.42 c -49.99,-0.03 -99.25,23.07 -130.91,66.54 -898.15,1233.67 -236.09,2391.54 -207.46,2440.24 45.31,77 144.46,102.7 221.46,57.4 76.91,-45.2 102.66,-144.14 57.66,-221.1 -24.77,-42.73 -579.94,-1028.68 189.89,-2086.08 52.61,-72.22 36.69,-173.43 -35.54,-225.99 -28.76,-20.93 -62.09,-31.01 -95.1,-31.01"
         style="fill:#ffffff;fill-opacity:1;fill-rule:nonzero;stroke:none"
         id="path86" />
      <path
         d="m 22628,12117.9 c -53.6,0 -97.1,43.5 -97.1,97.1 v 479.3 c 0,53.6 43.5,97.1 97.1,97.1 53.6,0 97,-43.5 97,-97.1 V 12215 c 0,-53.6 -43.4,-97.1 -97,-97.1"
         style="fill:#fbc807;fill-opacity:1;fill-rule:nonzero;stroke:none"
         id="path88" />
      <path
         d="m 24864.9,11191.4 c -24.8,0 -49.6,9.4 -68.6,28.4 -37.9,37.9 -37.9,99.4 0,137.3 l 338.9,338.9 c 37.9,37.9 99.4,37.9 137.3,0 37.9,-37.9 37.9,-99.4 0,-137.3 l -339,-338.9 c -18.9,-19 -43.7,-28.4 -68.6,-28.4"
         style="fill:#fbc807;fill-opacity:1;fill-rule:nonzero;stroke:none"
         id="path90" />
      <path
         d="m 20052.1,6378.53 c -24.9,0 -49.7,9.48 -68.6,28.43 -38,37.88 -38,99.37 0,137.25 l 338.9,338.93 c 37.9,37.92 99.3,37.92 137.2,0 38,-37.88 38,-99.37 0,-137.25 l -338.9,-338.93 c -18.9,-18.95 -43.8,-28.43 -68.6,-28.43"
         style="fill:#fbc807;fill-opacity:1;fill-rule:nonzero;stroke:none"
         id="path92" />
      <path
         d="m 26270.8,8954.39 h -479.3 c -53.6,0 -97.1,43.45 -97.1,97.07 0,53.62 43.5,97.06 97.1,97.06 h 479.3 c 53.6,0 97.1,-43.44 97.1,-97.06 0,-53.62 -43.5,-97.07 -97.1,-97.07"
         style="fill:#fbc807;fill-opacity:1;fill-rule:nonzero;stroke:none"
         id="path94" />
      <path
         d="m 19464.4,8954.39 h -479.3 c -53.6,0 -97,43.45 -97,97.07 0,53.62 43.4,97.06 97,97.06 h 479.3 c 53.6,0 97.1,-43.44 97.1,-97.06 0,-53.62 -43.5,-97.07 -97.1,-97.07"
         style="fill:#fbc807;fill-opacity:1;fill-rule:nonzero;stroke:none"
         id="path96" />
      <path
         d="m 25203.8,6378.53 c -24.8,0 -49.6,9.48 -68.6,28.43 l -338.9,338.93 c -37.9,37.88 -37.9,99.37 0,137.25 37.9,37.92 99.3,37.92 137.2,0 l 339,-338.93 c 37.9,-37.88 37.9,-99.37 0,-137.25 -19,-18.95 -43.8,-28.43 -68.7,-28.43"
         style="fill:#fbc807;fill-opacity:1;fill-rule:nonzero;stroke:none"
         id="path98" />
      <path
         d="m 20391,11191.4 c -24.8,0 -49.7,9.4 -68.6,28.4 l -338.9,338.9 c -38,37.9 -38,99.4 0,137.3 37.9,37.9 99.3,37.9 137.2,0 l 338.9,-338.9 c 38,-37.9 38,-99.4 0,-137.3 -18.9,-19 -43.8,-28.4 -68.6,-28.4"
         style="fill:#fbc807;fill-opacity:1;fill-rule:nonzero;stroke:none"
         id="path100" />
      <path
         d="m 23849.7,11872.5 c -12.5,0 -25.2,2.4 -37.5,7.5 -49.4,20.8 -72.7,77.6 -52,127 l 185.1,442.2 c 20.7,49.5 77.7,72.6 127,52 49.4,-20.7 72.8,-77.6 52.1,-127 l -185.2,-442.1 c -15.5,-37.2 -51.6,-59.6 -89.5,-59.6"
         style="fill:#fbc807;fill-opacity:1;fill-rule:nonzero;stroke:none"
         id="path102" />
      <path
         d="m 25555.3,10153.9 c -38.2,0 -74.4,22.7 -89.8,60.3 -20.3,49.6 3.4,106.2 53,126.6 l 443.5,181.7 c 49.6,20.4 106.3,-3.4 126.6,-53 20.4,-49.6 -3.4,-106.3 -53,-126.6 l -443.5,-181.8 c -12,-4.9 -24.5,-7.2 -36.8,-7.2"
         style="fill:#fbc807;fill-opacity:1;fill-rule:nonzero;stroke:none"
         id="path104" />
      <path
         d="m 19257.2,7573.14 c -38.3,0 -74.5,22.72 -89.9,60.29 -20.3,49.6 3.4,106.29 53,126.63 l 443.5,181.74 c 49.7,20.32 106.3,-3.41 126.7,-53.02 20.3,-49.6 -3.4,-106.28 -53,-126.63 l -443.6,-181.74 c -12,-4.93 -24.5,-7.27 -36.7,-7.27"
         style="fill:#fbc807;fill-opacity:1;fill-rule:nonzero;stroke:none"
         id="path106" />
      <path
         d="m 25988.2,7547.52 c -12.6,0 -25.3,2.43 -37.5,7.55 l -442.1,185.13 c -49.4,20.72 -72.8,77.55 -52.1,127.01 20.7,49.47 77.7,72.7 127,52.07 l 442.2,-185.12 c 49.4,-20.73 72.7,-77.61 52,-127.02 -15.5,-37.22 -51.6,-59.62 -89.5,-59.62"
         style="fill:#fbc807;fill-opacity:1;fill-rule:nonzero;stroke:none"
         id="path108" />
      <path
         d="m 19709.8,10176.1 c -12.5,0 -25.2,2.4 -37.4,7.6 l -442.1,185.1 c -49.5,20.7 -72.8,77.6 -52.1,127 20.7,49.5 77.8,72.7 127,52.1 l 442.1,-185.1 c 49.5,-20.8 72.8,-77.6 52.1,-127.1 -15.6,-37.2 -51.6,-59.6 -89.6,-59.6"
         style="fill:#fbc807;fill-opacity:1;fill-rule:nonzero;stroke:none"
         id="path110" />
      <path
         d="m 21428.5,11881.7 c -38.2,0 -74.4,22.7 -89.9,60.3 l -181.7,443.5 c -20.3,49.6 3.4,106.3 53,126.6 49.6,20.3 106.3,-3.4 126.7,-53 l 181.7,-443.5 c 20.3,-49.6 -3.4,-106.3 -53,-126.6 -12.1,-5 -24.5,-7.3 -36.8,-7.3"
         style="fill:#fbc807;fill-opacity:1;fill-rule:nonzero;stroke:none"
         id="path112" />
      <path
         d="m 23478.3,4433.2 h -1639.6 c -92.5,0 -167.5,75 -167.5,167.5 v 0 c 0,92.5 75,167.5 167.5,167.5 h 1639.6 c 92.5,0 167.5,-75 167.5,-167.5 v 0 c 0,-92.5 -75,-167.5 -167.5,-167.5"
         style="fill:#162942;fill-opacity:1;fill-rule:nonzero;stroke:none"
         id="path114" />
      <path
         d="m 23478.3,3907.1 h -1639.6 c -92.5,0 -167.5,75 -167.5,167.5 v 0 c 0,92.5 75,167.5 167.5,167.5 h 1639.6 c 92.5,0 167.5,-75 167.5,-167.5 v 0 c 0,-92.5 -75,-167.5 -167.5,-167.5"
         style="fill:#162942;fill-opacity:1;fill-rule:nonzero;stroke:none"
         id="path116" />
      <path
         d="m 22260.7,3708.9 c -40.6,0 -71.4,-36.9 -63.9,-76.8 40.3,-215.8 229.4,-379.2 457,-379.2 227.5,0 416.6,163.4 457,379.2 7.4,39.9 -23.4,76.8 -64,76.8 h -786.1"
         style="fill:#162942;fill-opacity:1;fill-rule:nonzero;stroke:none"
         id="path118" />
      <path
         d="m 23304.8,4979.3 h -1316.5 c -228,0 -420,178.3 -437.1,405.9 -55.8,742.2 -358.7,1212.48 -679.3,1710.37 -349.7,542.97 -711.3,1104.44 -711.3,2012.35 0,1225.98 876.9,2257.68 2085.2,2453.18 282.4,45.7 580,42.1 861,-10.3 1173.9,-219.5 2025.9,-1246.9 2025.9,-2442.88 0,-907.91 -361.6,-1469.38 -711.4,-2012.35 -320.7,-497.89 -623.5,-968.17 -679.3,-1710.37 -17.1,-227.6 -209.2,-405.9 -437.2,-405.9"
         style="fill:#fbc807;fill-opacity:1;fill-rule:nonzero;stroke:none"
         id="path120" />
      <path
         d="m 21442,7550.42 c -49.9,0 -99.2,23.07 -130.9,66.54 -898.2,1233.67 -236.1,2391.54 -207.4,2440.24 45.2,77 144.4,102.7 221.4,57.4 76.9,-45.2 102.7,-144.14 57.7,-221.1 -24.8,-42.73 -580,-1028.68 189.9,-2086.08 52.6,-72.22 36.7,-173.43 -35.6,-225.99 -28.7,-20.93 -62.1,-31.01 -95.1,-31.01"
         style="fill:#ffffff;fill-opacity:1;fill-rule:nonzero;stroke:none"
         id="path122" />
    </g>
  </g>
</svg>
