<?xml version="1.0" encoding="UTF-8" standalone="no"?>
<!-- Created with Inkscape (http://www.inkscape.org/) -->

<svg
   version="1.1"
   id="svg2"
   width="997.30664"
   height="1271.7999"
   viewBox="0 0 997.30663 1271.7999"
   sodipodi:docname="bombilla-off.svg"
   inkscape:version="1.2.2 (b0a8486541, 2022-12-01)"
   xmlns:inkscape="http://www.inkscape.org/namespaces/inkscape"
   xmlns:sodipodi="http://sodipodi.sourceforge.net/DTD/sodipodi-0.dtd"
   xmlns="http://www.w3.org/2000/svg"
   xmlns:svg="http://www.w3.org/2000/svg">
  <defs
     id="defs6" />
  <sodipodi:namedview
     id="namedview4"
     pagecolor="#ffffff"
     bordercolor="#000000"
     borderopacity="0.25"
     inkscape:showpageshadow="2"
     inkscape:pageopacity="0.0"
     inkscape:pagecheckerboard="0"
     inkscape:deskcolor="#d1d1d1"
     showgrid="false"
     inkscape:zoom="0.41280725"
     inkscape:cx="393.64619"
     inkscape:cy="639.52365"
     inkscape:window-width="2560"
     inkscape:window-height="1368"
     inkscape:window-x="0"
     inkscape:window-y="35"
     inkscape:window-maximized="1"
     inkscape:current-layer="g10">
    <inkscape:page
       x="0"
       y="0"
       id="page8"
       width="997.30664"
       height="1271.7999" />
  </sodipodi:namedview>
  <g
     id="g10"
     inkscape:groupmode="layer"
     inkscape:label="Page 1"
     transform="matrix(1.3333333,0,0,-1.3333333,-1384.6133,1705.52)">
    <path
       d="m 1412.45,1211.8 c -5.36,0 -9.71,4.34 -9.71,9.7 v 47.93 c 0,5.36 4.35,9.71 9.71,9.71 5.36,0 9.71,-4.35 9.71,-9.71 v -47.93 c 0,-5.36 -4.35,-9.7 -9.71,-9.7"
       style="fill:#162942;fill-opacity:1;fill-rule:nonzero;stroke:none;stroke-width:0.1"
       id="path16" />
    <path
       d="m 1636.14,1119.14 c -2.48,0 -4.96,0.95 -6.86,2.84 -3.79,3.79 -3.79,9.94 0,13.73 l 33.9,33.89 c 3.79,3.79 9.93,3.79 13.72,0 3.79,-3.79 3.79,-9.94 0,-13.73 l -33.89,-33.89 c -1.9,-1.89 -4.38,-2.84 -6.87,-2.84"
       style="fill:#162942;fill-opacity:1;fill-rule:nonzero;stroke:none;stroke-width:0.1"
       id="path18" />
    <path
       d="m 1154.86,637.851 c -2.48,0 -4.97,0.947 -6.86,2.843 -3.79,3.788 -3.79,9.937 0,13.725 l 33.89,33.893 c 3.79,3.792 9.93,3.792 13.73,0 3.79,-3.789 3.79,-9.936 0,-13.725 l -33.9,-33.893 c -1.89,-1.896 -4.38,-2.843 -6.86,-2.843"
       style="fill:#162942;fill-opacity:1;fill-rule:nonzero;stroke:none;stroke-width:0.1"
       id="path20" />
    <path
       d="m 1776.74,895.44 h -47.94 c -5.36,0 -9.71,4.345 -9.71,9.706 0,5.363 4.35,9.707 9.71,9.707 h 47.94 c 5.36,0 9.7,-4.344 9.7,-9.707 0,-5.361 -4.34,-9.706 -9.7,-9.706"
       style="fill:#162942;fill-opacity:1;fill-rule:nonzero;stroke:none;stroke-width:0.1"
       id="path22" />
    <path
       d="m 1096.09,895.44 h -47.93 c -5.36,0 -9.7,4.345 -9.7,9.706 0,5.363 4.34,9.707 9.7,9.707 h 47.93 c 5.37,0 9.71,-4.344 9.71,-9.707 0,-5.361 -4.34,-9.706 -9.71,-9.706"
       style="fill:#162942;fill-opacity:1;fill-rule:nonzero;stroke:none;stroke-width:0.1"
       id="path24" />
    <path
       d="m 1670.04,637.851 c -2.48,0 -4.97,0.947 -6.86,2.843 l -33.9,33.893 c -3.79,3.789 -3.79,9.934 0,13.725 3.79,3.792 9.93,3.792 13.73,0 l 33.89,-33.893 c 3.79,-3.788 3.79,-9.934 0,-13.725 -1.89,-1.896 -4.38,-2.843 -6.86,-2.843"
       style="fill:#162942;fill-opacity:1;fill-rule:nonzero;stroke:none;stroke-width:0.1"
       id="path26" />
    <path
       d="m 1188.75,1119.14 c -2.48,0 -4.96,0.95 -6.86,2.84 l -33.89,33.89 c -3.79,3.79 -3.79,9.94 0,13.73 3.79,3.79 9.93,3.79 13.72,0 l 33.9,-33.89 c 3.79,-3.79 3.79,-9.94 0,-13.73 -1.9,-1.89 -4.38,-2.84 -6.87,-2.84"
       style="fill:#162942;fill-opacity:1;fill-rule:nonzero;stroke:none;stroke-width:0.1"
       id="path28" />
    <path
       d="m 1534.62,1187.25 c -1.25,0 -2.52,0.24 -3.74,0.75 -4.95,2.07 -7.28,7.76 -5.21,12.71 l 18.51,44.21 c 2.07,4.95 7.77,7.27 12.7,5.21 4.95,-2.07 7.28,-7.76 5.21,-12.71 l -18.51,-44.21 c -1.56,-3.72 -5.16,-5.96 -8.96,-5.96"
       style="fill:#162942;fill-opacity:1;fill-rule:nonzero;stroke:none;stroke-width:0.1"
       id="path30" />
    <path
       d="m 1705.18,1015.39 c -3.82,0 -7.44,2.27 -8.98,6.03 -2.03,4.96 0.34,10.63 5.3,12.66 l 44.35,18.18 c 4.96,2.02 10.63,-0.35 12.66,-5.31 2.04,-4.96 -0.34,-10.63 -5.3,-12.66 l -44.35,-18.17 c -1.2,-0.5 -2.45,-0.73 -3.68,-0.73"
       style="fill:#162942;fill-opacity:1;fill-rule:nonzero;stroke:none;stroke-width:0.1"
       id="path32" />
    <path
       d="m 1075.37,757.312 c -3.83,0 -7.45,2.272 -8.99,6.029 -2.03,4.96 0.34,10.629 5.3,12.663 l 44.36,18.175 c 4.95,2.028 10.63,-0.345 12.66,-5.302 2.03,-4.961 -0.34,-10.63 -5.3,-12.664 l -44.36,-18.175 c -1.2,-0.492 -2.45,-0.726 -3.67,-0.726"
       style="fill:#162942;fill-opacity:1;fill-rule:nonzero;stroke:none;stroke-width:0.1"
       id="path34" />
    <path
       d="m 1748.47,754.753 c -1.25,0 -2.52,0.243 -3.74,0.755 l -44.22,18.509 c -4.94,2.07 -7.28,7.756 -5.21,12.702 2.08,4.951 7.77,7.273 12.7,5.207 l 44.22,-18.509 c 4.95,-2.07 7.28,-7.758 5.21,-12.702 -1.56,-3.722 -5.17,-5.962 -8.96,-5.962"
       style="fill:#162942;fill-opacity:1;fill-rule:nonzero;stroke:none;stroke-width:0.1"
       id="path36" />
    <path
       d="m 1120.63,1017.61 c -1.25,0 -2.52,0.25 -3.74,0.76 l -44.21,18.51 c -4.95,2.07 -7.28,7.76 -5.21,12.7 2.07,4.95 7.77,7.27 12.7,5.21 l 44.21,-18.51 c 4.95,-2.08 7.28,-7.76 5.21,-12.7 -1.56,-3.73 -5.16,-5.97 -8.96,-5.97"
       style="fill:#162942;fill-opacity:1;fill-rule:nonzero;stroke:none;stroke-width:0.1"
       id="path38" />
    <path
       d="m 1292.5,1188.17 c -3.82,0 -7.45,2.27 -8.99,6.03 l -18.17,44.35 c -2.03,4.96 0.34,10.63 5.3,12.67 4.96,2.02 10.63,-0.35 12.67,-5.31 l 18.17,-44.35 c 2.03,-4.96 -0.34,-10.63 -5.3,-12.67 -1.21,-0.49 -2.45,-0.72 -3.68,-0.72"
       style="fill:#162942;fill-opacity:1;fill-rule:nonzero;stroke:none;stroke-width:0.1"
       id="path40" />
    <path
       d="m 1497.48,443.32 h -163.96 c -9.25,0 -16.75,7.5 -16.75,16.75 v 0 c 0,9.25 7.5,16.75 16.75,16.75 h 163.96 c 9.25,0 16.75,-7.5 16.75,-16.75 v 0 c 0,-9.25 -7.5,-16.75 -16.75,-16.75"
       style="fill:#162942;fill-opacity:1;fill-rule:nonzero;stroke:none;stroke-width:0.1"
       id="path42" />
    <path
       d="m 1497.48,390.71 h -163.96 c -9.25,0 -16.75,7.5 -16.75,16.75 v 0 c 0,9.25 7.5,16.75 16.75,16.75 h 163.96 c 9.25,0 16.75,-7.5 16.75,-16.75 v 0 c 0,-9.25 -7.5,-16.75 -16.75,-16.75"
       style="fill:#162942;fill-opacity:1;fill-rule:nonzero;stroke:none;stroke-width:0.1"
       id="path44" />
    <path
       d="m 1375.72,370.89 c -4.06,0 -7.14,-3.69 -6.39,-7.68 4.04,-21.58 22.95,-37.92 45.7,-37.92 22.75,0 41.66,16.34 45.7,37.92 0.74,3.99 -2.34,7.68 -6.39,7.68 h -78.62"
       style="fill:#162942;fill-opacity:1;fill-rule:nonzero;stroke:none;stroke-width:0.1"
       id="path46" />
    <path
       d="m 1414.27,1126.94 c -11.73,0 -23.44,-0.92 -34.87,-2.77 -105.07,-17 -181.34,-106.74 -181.34,-213.377 0,-81.274 32.05,-131.035 65.98,-183.716 32.84,-50.992 66.8,-103.723 72.99,-186.137 0.45,-5.97 5.48,-10.65 11.46,-10.65 h 131.64 c 6.07,0 11,4.58 11.45,10.65 6.2,82.414 40.16,135.145 73,186.137 33.93,52.681 65.99,102.442 65.99,183.716 0,104.027 -74.1,193.397 -176.18,212.477 -13.1,2.45 -26.61,3.67 -40.12,3.67 z m 65.86,-629.01 h -131.64 c -22.81,0 -42.01,17.83 -43.72,40.59 -5.58,74.221 -35.86,121.249 -67.93,171.038 -34.97,54.297 -71.13,110.443 -71.13,201.235 0,122.597 87.69,225.767 208.52,245.317 28.25,4.57 58.02,4.21 86.1,-1.03 117.39,-21.95 202.59,-124.69 202.59,-244.287 0,-90.792 -36.16,-146.938 -71.13,-201.235 -32.08,-49.789 -62.36,-96.817 -67.94,-171.038 -1.71,-22.76 -20.92,-40.59 -43.72,-40.59"
       style="fill:#162942;fill-opacity:1;fill-rule:nonzero;stroke:none;stroke-width:0.1"
       id="path48" />
    <path
       d="m 1293.85,755.044 c -4.99,-0.004 -9.92,2.306 -13.09,6.653 -89.81,123.367 -23.61,239.153 -20.74,244.023 4.52,7.7 14.44,10.27 22.14,5.74 7.69,-4.52 10.27,-14.413 5.77,-22.109 -2.48,-4.272 -58,-102.868 18.99,-208.608 5.26,-7.222 3.67,-17.343 -3.56,-22.6 -2.87,-2.091 -6.2,-3.099 -9.51,-3.099"
       style="fill:#162942;fill-opacity:1;fill-rule:nonzero;stroke:none;stroke-width:0.1"
       id="path50" />
  </g>
</svg>
