<?xml version="1.0" encoding="UTF-8" standalone="no"?>
<!-- Created with Inkscape (http://www.inkscape.org/) -->

<svg
   version="1.1"
   id="svg2"
   width="997.30664"
   height="1271.7999"
   viewBox="0 0 997.30663 1271.7999"
   sodipodi:docname="bombilla-on.svg"
   inkscape:version="1.2.2 (b0a8486541, 2022-12-01)"
   xmlns:inkscape="http://www.inkscape.org/namespaces/inkscape"
   xmlns:sodipodi="http://sodipodi.sourceforge.net/DTD/sodipodi-0.dtd"
   xmlns="http://www.w3.org/2000/svg"
   xmlns:svg="http://www.w3.org/2000/svg">
  <defs
     id="defs6" />
  <sodipodi:namedview
     id="namedview4"
     pagecolor="#ffffff"
     bordercolor="#000000"
     borderopacity="0.25"
     inkscape:showpageshadow="2"
     inkscape:pageopacity="0.0"
     inkscape:pagecheckerboard="0"
     inkscape:deskcolor="#d1d1d1"
     showgrid="false"
     inkscape:zoom="0.41280725"
     inkscape:cx="-742.47726"
     inkscape:cy="637.10121"
     inkscape:window-width="2560"
     inkscape:window-height="1368"
     inkscape:window-x="0"
     inkscape:window-y="35"
     inkscape:window-maximized="1"
     inkscape:current-layer="g10">
    <inkscape:page
       x="0"
       y="0"
       id="page8"
       width="997.30664"
       height="1271.7999" />
  </sodipodi:namedview>
  <g
     id="g10"
     inkscape:groupmode="layer"
     inkscape:label="Page 1"
     transform="matrix(1.3333333,0,0,-1.3333333,-2518.4133,1705.52)">
    <path
       d="m 2262.8,1211.79 c -5.36,0 -9.71,4.35 -9.71,9.71 v 47.93 c 0,5.36 4.35,9.71 9.71,9.71 5.36,0 9.7,-4.35 9.7,-9.71 v -47.93 c 0,-5.36 -4.34,-9.71 -9.7,-9.71"
       style="fill:#fbc807;fill-opacity:1;fill-rule:nonzero;stroke:none;stroke-width:0.1"
       id="path88" />
    <path
       d="m 2486.49,1119.14 c -2.48,0 -4.96,0.94 -6.86,2.84 -3.79,3.79 -3.79,9.94 0,13.73 l 33.89,33.89 c 3.79,3.79 9.94,3.79 13.73,0 3.79,-3.79 3.79,-9.94 0,-13.73 l -33.9,-33.89 c -1.89,-1.9 -4.37,-2.84 -6.86,-2.84"
       style="fill:#fbc807;fill-opacity:1;fill-rule:nonzero;stroke:none;stroke-width:0.1"
       id="path90" />
    <path
       d="m 2005.21,637.853 c -2.49,0 -4.97,0.948 -6.86,2.843 -3.8,3.788 -3.8,9.937 0,13.725 l 33.89,33.893 c 3.79,3.792 9.93,3.792 13.72,0 3.8,-3.788 3.8,-9.937 0,-13.725 l -33.89,-33.893 c -1.89,-1.895 -4.38,-2.843 -6.86,-2.843"
       style="fill:#fbc807;fill-opacity:1;fill-rule:nonzero;stroke:none;stroke-width:0.1"
       id="path92" />
    <path
       d="m 2627.08,895.439 h -47.93 c -5.36,0 -9.71,4.345 -9.71,9.707 0,5.362 4.35,9.706 9.71,9.706 h 47.93 c 5.36,0 9.71,-4.344 9.71,-9.706 0,-5.362 -4.35,-9.707 -9.71,-9.707"
       style="fill:#fbc807;fill-opacity:1;fill-rule:nonzero;stroke:none;stroke-width:0.1"
       id="path94" />
    <path
       d="m 1946.44,895.439 h -47.93 c -5.36,0 -9.7,4.345 -9.7,9.707 0,5.362 4.34,9.706 9.7,9.706 h 47.93 c 5.36,0 9.71,-4.344 9.71,-9.706 0,-5.362 -4.35,-9.707 -9.71,-9.707"
       style="fill:#fbc807;fill-opacity:1;fill-rule:nonzero;stroke:none;stroke-width:0.1"
       id="path96" />
    <path
       d="m 2520.38,637.853 c -2.48,0 -4.96,0.948 -6.86,2.843 l -33.89,33.893 c -3.79,3.788 -3.79,9.937 0,13.725 3.79,3.792 9.93,3.792 13.72,0 l 33.9,-33.893 c 3.79,-3.788 3.79,-9.937 0,-13.725 -1.9,-1.895 -4.38,-2.843 -6.87,-2.843"
       style="fill:#fbc807;fill-opacity:1;fill-rule:nonzero;stroke:none;stroke-width:0.1"
       id="path98" />
    <path
       d="m 2039.1,1119.14 c -2.48,0 -4.97,0.94 -6.86,2.84 l -33.89,33.89 c -3.8,3.79 -3.8,9.94 0,13.73 3.79,3.79 9.93,3.79 13.72,0 l 33.89,-33.89 c 3.8,-3.79 3.8,-9.94 0,-13.73 -1.89,-1.9 -4.38,-2.84 -6.86,-2.84"
       style="fill:#fbc807;fill-opacity:1;fill-rule:nonzero;stroke:none;stroke-width:0.1"
       id="path100" />
    <path
       d="m 2384.97,1187.25 c -1.25,0 -2.52,0.24 -3.75,0.75 -4.94,2.08 -7.27,7.76 -5.2,12.7 l 18.51,44.22 c 2.07,4.95 7.77,7.26 12.7,5.2 4.94,-2.07 7.28,-7.76 5.21,-12.7 l -18.52,-44.21 c -1.55,-3.72 -5.16,-5.96 -8.95,-5.96"
       style="fill:#fbc807;fill-opacity:1;fill-rule:nonzero;stroke:none;stroke-width:0.1"
       id="path102" />
    <path
       d="m 2555.53,1015.39 c -3.82,0 -7.44,2.27 -8.98,6.03 -2.03,4.96 0.34,10.62 5.3,12.66 l 44.35,18.17 c 4.96,2.04 10.63,-0.34 12.66,-5.3 2.04,-4.96 -0.34,-10.63 -5.3,-12.66 l -44.35,-18.18 c -1.2,-0.49 -2.45,-0.72 -3.68,-0.72"
       style="fill:#fbc807;fill-opacity:1;fill-rule:nonzero;stroke:none;stroke-width:0.1"
       id="path104" />
    <path
       d="m 1925.72,757.314 c -3.83,0 -7.45,2.272 -8.99,6.029 -2.03,4.96 0.34,10.629 5.3,12.663 l 44.35,18.174 c 4.97,2.032 10.63,-0.341 12.67,-5.302 2.03,-4.96 -0.34,-10.628 -5.3,-12.663 l -44.36,-18.174 c -1.2,-0.493 -2.45,-0.727 -3.67,-0.727"
       style="fill:#fbc807;fill-opacity:1;fill-rule:nonzero;stroke:none;stroke-width:0.1"
       id="path106" />
    <path
       d="m 2598.82,754.752 c -1.26,0 -2.53,0.243 -3.75,0.755 l -44.21,18.513 c -4.94,2.072 -7.28,7.755 -5.21,12.701 2.07,4.947 7.77,7.27 12.7,5.207 l 44.22,-18.512 c 4.94,-2.073 7.27,-7.761 5.2,-12.702 -1.55,-3.722 -5.16,-5.962 -8.95,-5.962"
       style="fill:#fbc807;fill-opacity:1;fill-rule:nonzero;stroke:none;stroke-width:0.1"
       id="path108" />
    <path
       d="m 1970.98,1017.61 c -1.25,0 -2.52,0.24 -3.74,0.76 l -44.21,18.51 c -4.95,2.07 -7.28,7.76 -5.21,12.7 2.07,4.95 7.78,7.27 12.7,5.21 l 44.21,-18.51 c 4.95,-2.08 7.28,-7.76 5.21,-12.71 -1.56,-3.72 -5.16,-5.96 -8.96,-5.96"
       style="fill:#fbc807;fill-opacity:1;fill-rule:nonzero;stroke:none;stroke-width:0.1"
       id="path110" />
    <path
       d="m 2142.85,1188.17 c -3.82,0 -7.44,2.27 -8.99,6.03 l -18.17,44.35 c -2.03,4.96 0.34,10.63 5.3,12.66 4.96,2.03 10.63,-0.34 12.67,-5.3 l 18.17,-44.35 c 2.03,-4.96 -0.34,-10.63 -5.3,-12.66 -1.21,-0.5 -2.45,-0.73 -3.68,-0.73"
       style="fill:#fbc807;fill-opacity:1;fill-rule:nonzero;stroke:none;stroke-width:0.1"
       id="path112" />
    <path
       d="m 2347.83,443.32 h -163.96 c -9.25,0 -16.75,7.5 -16.75,16.75 v 0 c 0,9.25 7.5,16.75 16.75,16.75 h 163.96 c 9.25,0 16.75,-7.5 16.75,-16.75 v 0 c 0,-9.25 -7.5,-16.75 -16.75,-16.75"
       style="fill:#162942;fill-opacity:1;fill-rule:nonzero;stroke:none;stroke-width:0.1"
       id="path114" />
    <path
       d="m 2347.83,390.71 h -163.96 c -9.25,0 -16.75,7.5 -16.75,16.75 v 0 c 0,9.25 7.5,16.75 16.75,16.75 h 163.96 c 9.25,0 16.75,-7.5 16.75,-16.75 v 0 c 0,-9.25 -7.5,-16.75 -16.75,-16.75"
       style="fill:#162942;fill-opacity:1;fill-rule:nonzero;stroke:none;stroke-width:0.1"
       id="path116" />
    <path
       d="m 2226.07,370.89 c -4.06,0 -7.14,-3.69 -6.39,-7.68 4.03,-21.58 22.94,-37.92 45.7,-37.92 22.75,0 41.66,16.34 45.7,37.92 0.74,3.99 -2.34,7.68 -6.4,7.68 h -78.61"
       style="fill:#162942;fill-opacity:1;fill-rule:nonzero;stroke:none;stroke-width:0.1"
       id="path118" />
    <path
       d="m 2330.48,497.93 h -131.65 c -22.8,0 -42,17.83 -43.71,40.59 -5.58,74.22 -35.87,121.248 -67.93,171.037 -34.97,54.297 -71.13,110.444 -71.13,201.235 0,122.598 87.69,225.768 208.52,245.318 28.24,4.57 58,4.21 86.1,-1.03 117.39,-21.95 202.59,-124.69 202.59,-244.288 0,-90.791 -36.16,-146.938 -71.14,-201.235 -32.07,-49.789 -62.35,-96.817 -67.93,-171.037 -1.71,-22.76 -20.92,-40.59 -43.72,-40.59"
       style="fill:#fbc807;fill-opacity:1;fill-rule:nonzero;stroke:none;stroke-width:0.1"
       id="path120" />
    <path
       d="m 2144.2,755.042 c -4.99,0 -9.92,2.307 -13.09,6.654 -89.82,123.367 -23.61,239.154 -20.74,244.024 4.52,7.7 14.44,10.27 22.14,5.74 7.69,-4.52 10.27,-14.414 5.77,-22.11 -2.48,-4.273 -58,-102.868 18.99,-208.608 5.26,-7.222 3.67,-17.343 -3.56,-22.599 -2.87,-2.093 -6.21,-3.101 -9.51,-3.101"
       style="fill:#ffffff;fill-opacity:1;fill-rule:nonzero;stroke:none;stroke-width:0.1"
       id="path122" />
  </g>
</svg>
